<svg xmlns="http://www.w3.org/2000/svg" viewBox="0 0 84 84"><defs><style>.cls-1{fill:#fbfbfc;}.cls-2{fill:#162950;}.cls-3{fill:#e9eaee;}</style></defs><g id="Layer_2" data-name="Layer 2"><g id="Layer_1-2" data-name="Layer 1"><path class="cls-1" d="M0,16V0H84V84H0V20a8.39,8.39,0,0,1,1.14,2.41c.57,5.44.77,10.92,1.55,16.32,1.35,9.39,3,18.74,9.23,26.46,4.93,6.16,11.11,7.22,17.42,2.63,7.71-5.59,13-13.17,16.85-21.8a30,30,0,0,0,3.49-4.48C51.61,37.77,53.25,33.85,55,30c5.36,4.51,5.61,11,6.26,17.15.8,7.72,1.18,15.48,1.76,23.37H83.12c-.48-6.55-.72-12.81-1.44-19-1.22-10.57-2.76-21.13-9.33-30C67.55,15,61,13.65,54.59,18.32A53,53,0,0,0,37,41L31,53l1.72.72L39,41.09a11.44,11.44,0,0,1,1.5-2.4c3.54-3.51,5.62-8.79,11.45-9.56-1,2.59-2,5.17-3,7.77s-2,5.43-3,8.15a19.35,19.35,0,0,0-2.92,2.19c-2.24,2.44-4.13,5.24-6.55,7.47-4.32,4-8.65,3.29-10.59-2.19a81.7,81.7,0,0,1-3.7-16.86c-.82-6.5-.86-13.1-1.23-19.66Z"/><path class="cls-2" d="M0,16H21c.37,6.56.41,13.16,1.23,19.66a81.7,81.7,0,0,0,3.7,16.86c1.94,5.48,6.27,6.17,10.59,2.19,2.42-2.23,4.31-5,6.55-7.47A19.35,19.35,0,0,1,46,45.05a1.93,1.93,0,0,0,.2,1c-3.86,8.63-9.14,16.21-16.85,21.8C23,72.41,16.85,71.35,11.92,65.19,5.73,57.47,4,48.12,2.69,38.73c-.78-5.4-1-10.88-1.55-16.32A8.39,8.39,0,0,0,0,20Z"/><path class="cls-2" d="M37,41A53,53,0,0,1,54.59,18.32c6.42-4.67,13-3.37,17.76,3.15,6.57,8.91,8.11,19.47,9.33,30,.72,6.2,1,12.46,1.44,19H63c-.58-7.89-1-15.65-1.76-23.37C60.62,41,60.37,34.51,55,30l-3-.87c-5.83.77-7.91,6.05-11.45,9.56a11.44,11.44,0,0,0-1.5,2.4Z"/><path class="cls-3" d="M52,29.13,55,30c-1.76,3.85-3.4,7.77-5.33,11.54A30,30,0,0,1,46.19,46a1.93,1.93,0,0,1-.2-1c1-2.72,2-5.44,3-8.15S51,31.72,52,29.13Z"/><path class="cls-3" d="M37,41l2,.09L32.69,53.75,31,53Z"/></g></g></svg>